<svg id="Capa_1" data-name="Capa 1" xmlns="http://www.w3.org/2000/svg" viewBox="0 0 108.54 108.15"><defs><style>.cls-1{fill:#83467f;}.cls-2{fill:#f0ebf3;}.cls-3{fill:#231e21;}</style></defs><title>BRAND_SVG_SEPT_27_2019</title><circle class="cls-1" cx="54.25" cy="54.06" r="53.86"/><circle class="cls-2" cx="54.25" cy="54.06" r="50.17"/><path class="cls-1" d="M22.3,45.83a8.89,8.89,0,1,0,8.88,8.88A8.88,8.88,0,0,0,22.3,45.83ZM26,59.62H19v-1.4a7.18,7.18,0,0,1,1.12-1.69,16.39,16.39,0,0,1,1.83-1.72,9.08,9.08,0,0,0,1.49-1.42,1.79,1.79,0,0,0,.43-1.1A1.17,1.17,0,0,0,22.49,51a1.3,1.3,0,0,0-1,.34,1.79,1.79,0,0,0-.44,1h-2a3.44,3.44,0,0,1,1-2.25,3.6,3.6,0,0,1,2.39-.74,3.76,3.76,0,0,1,2.51.75,2.59,2.59,0,0,1,.87,2.09,2.83,2.83,0,0,1-.28,1.28,4.41,4.41,0,0,1-.72,1.06,7.6,7.6,0,0,1-1,.9l-1,.83c-.34.27-.64.54-.92.81a2.93,2.93,0,0,0-.61.87H26Z"/><path class="cls-3" d="M87.43,72.58q0,8.61-4.63,13.24T69.54,90.44H33.75V72.58l31.4,0q4.32,0,4.32-4.21A5,5,0,0,0,68.25,65a3.87,3.87,0,0,0-3.1-1.42H33.75V45.74h31.4c2.88,0,4.32-1.4,4.32-4.22a5,5,0,0,0-1.22-3.33,3.88,3.88,0,0,0-3.1-1.43H33.75V18.91H69.54q8.52,0,13.2,4.68T87.43,36.8v8.94a12.44,12.44,0,0,1-1.28,5.48q-1.59,3-4,3.58,5.31,3.26,5.31,8.84Z"/></svg>