<svg id="Capa_1" data-name="Capa 1" xmlns="http://www.w3.org/2000/svg" viewBox="0 0 234.92 58.97"><defs><style>.cls-1{fill:#a16faa;}.cls-2{fill:#d97ea6;}.cls-3{fill:none;stroke:#a16faa;}.cls-3,.cls-4{stroke-miterlimit:10;}.cls-4{font-size:8.7px;fill:#1e1e1c;stroke:#1e1e1c;stroke-width:0.2px;font-family:ArialMT, Arial;letter-spacing:0.87em;}</style></defs><title>LOGO_COUNTRYS</title><rect class="cls-1" x="52.52" y="11.71" width="7.21" height="23.92"/><polygon class="cls-1" points="42.87 3.76 42.87 9.31 52.52 9.33 59.73 9.31 69.38 9.31 69.38 3.76 42.87 3.76"/><path class="cls-1" d="M133.22,11.94a7.32,7.32,0,0,1-1.41-.88V35.63h7.27V15.86A20,20,0,0,0,133.22,11.94Z"/><path class="cls-2" d="M133.9,10.49a24,24,0,0,1,5.18,3.2V3.75h-7.27v5A5.21,5.21,0,0,0,133.9,10.49Z"/><path class="cls-2" d="M34.06,10.5a23.62,23.62,0,0,1,5.18,3.2V3.76H32v5A5.29,5.29,0,0,0,34.06,10.5Z"/><path class="cls-1" d="M33.38,11.94A7.29,7.29,0,0,1,32,11.07V35.63h7.27V15.87A19.82,19.82,0,0,0,33.38,11.94Z"/><path class="cls-1" d="M87.53,3.6l13.59,31.92H93.54l-2.19-5.64h0l-1.56-4.06L84.81,13l-4.7,11.64-2,5.23-2.25,5.64H68.24L81.78,3.6Z"/><path class="cls-1" d="M93,34.05A66.18,66.18,0,0,0,88.7,29c-1.44-1.41-4.83-2.24-6.23-2.29s-3.91,0-3.93,0l-.14-4.17c.11,0,2.8-.09,4.23,0,1.84.07,6.45,1,9,3.46a65.34,65.34,0,0,1,4.6,5.6Z"/><polygon class="cls-1" points="160.33 3.71 154.58 3.71 141.04 35.63 148.62 35.63 150.87 29.98 152.91 24.75 157.62 13.11 162.54 25.92 164.1 29.98 164.15 29.98 166.34 35.63 173.92 35.63 160.33 3.71"/><path class="cls-1" d="M165.77,34.16a62.36,62.36,0,0,0-4.27-5.1c-1.44-1.4-4.82-2.24-6.23-2.29s-3.91,0-3.93,0l-.14-4.17c.11,0,2.8-.09,4.23,0,1.84.07,6.45,1,9,3.47A67,67,0,0,1,169,31.66Z"/><path class="cls-1" d="M103.92,35.63V3.76h7.21V30.08h16.75v5.55Z"/><path class="cls-1" d="M111.1,27.41a2.61,2.61,0,0,0,2.62,2.66v2.62h-5.19V27.41Z"/><line class="cls-3" x1="31.84" y1="42.29" x2="203.02" y2="42.29"/><text class="cls-4" transform="translate(31.33 55.41)">BUSINESS GUIDE</text><path class="cls-1" d="M187.36,10.48h4.42c1.56,0,2.58.35,3.14,1.07a4.57,4.57,0,0,1,.63,2.67V35.63H203V13.79a17,17,0,0,0-.52-4.53,7.49,7.49,0,0,0-1.62-3,6.85,6.85,0,0,0-3.28-2.13,18.45,18.45,0,0,0-4.93-.59H179.89V35.63h7.47Z"/></svg>